<svg version="1.1" id="Layer_1" xmlns="http://www.w3.org/2000/svg" xmlns:xlink="http://www.w3.org/1999/xlink" x="0px" y="0px" viewBox="0 0 415.3 66.8" style="enable-background:new 0 0 415.3 66.8;" xml:space="preserve">
 <style type="text/css">
  .st0{fill:#FFFFFF;}
 </style>
 <g>
  <path class="st0" d="M26.3,1.5C12.6,1.5,1.6,15.8,1.6,33.3c0,17.6,11.1,31.9,24.7,31.9S51,50.9,51,33.3C51,15.8,39.9,1.5,26.3,1.5
		 M26.3,66.8C11.8,66.8,0,51.8,0,33.4S11.8,0,26.3,0s26.3,15,26.3,33.4S40.8,66.8,26.3,66.8">
  </path>
  <path class="st0" d="M34,10.5v0.1c-0.6,0.2-1.3,0.4-2,0.6c-0.2,0-0.4,0.1-0.4,0.2v0.1c0.9,0.6,1.9,1.4,2.9,1.9
		c0-0.8-0.1-1.7-0.1-2.5l0.1-0.1c2.1,1.2,4,2.4,6.2,3.6v0.2c-1,0.4-2.2,0.7-3.1,1.3c-2.1-1-4.1-2.5-6-3.8c-1.5-1.1-3.1-2.3-4.5-3.5
		c-0.1-0.2,0.1-0.3,0.2-0.4c0-1,0.2-2,0.2-3.1l0.4,0.2L34,10.5z">
  </path>
  <path class="st0" d="M35.3,8.6c1.8,1.6,3.3,3.1,5,5c-3.1-1.5-6.1-3.3-8.8-5.8c-1-0.9-2-1.7-2.9-2.6h0.2L35.3,8.6z">
  </path>
  <path class="st0" d="M26.8,9.6c3.1,2.5,6.4,5,9.8,6.9c0.1,0.1,0.2,0.4,0.1,0.6c-0.2,0.2-0.6-0.1-0.8-0.1c-3.2-2-6.5-4.2-9.4-6.6
		c-0.2-0.2-0.2-0.5-0.1-0.7C26.4,9.6,26.6,9.6,26.8,9.6">
  </path>
  <path class="st0" d="M28.9,17.7c-0.9-0.2-1.8-0.7-2.2-1.4c-0.1-0.1-0.1-0.4,0.1-0.4c0.9,0.9,2.2,1.4,3.4,1.3
		c0.1,0.1,0.4,0.2,0.2,0.4c-0.2,0.1-0.5,0.1-0.7,0.2c0.5,1,1.7,1.3,2.6,1.6c0.1,0.2-0.1,0.2-0.2,0.2C30.9,19.6,29.5,19,28.9,17.7
		 M31.2,17.5c1,0.4,2,0.9,3.1,0.6c0.3,0,0.5,0.1,0.5,0.3c0,0.2-0.1,0.4-0.3,0.4C33.2,19,32.2,18.2,31.2,17.5L31.2,17.5z M43.1,33.9
		c-0.1-2.7-2.8-3.6-4.3-5.2c-0.4-0.3-0.7,0.2-1.1,0.1c-0.7-0.4,0.4-0.4,0.4-0.9c-0.6-0.8-0.6-1.9-1.2-2.7c-0.4-0.2-0.6,0.2-1,0
		c-0.2-1.3-0.6-2.6-1.2-3.7c-1.4-0.9-1.4,1.4-2.6,1.3c0-0.1-0.1-0.1-0.1-0.2c0-0.2,0.3-0.2,0.4-0.4c0.3-0.2,0.3-0.8,0.3-1.2
		c-0.2-0.4-0.7-0.4-1.1-0.4c-0.2,0-0.3-0.2-0.2-0.5c0.4-0.6,1-0.1,1.6-0.1c0.6-0.4,1.2-0.2,1.8-0.5c0.5-0.2,0.6-0.6,0.6-1.1
		c0.2-0.1,0.4,0.1,0.6-0.1c0-0.3-0.1-0.7-0.2-0.9c-2-1.1-3.6-3-6-3.7c-0.4-0.2-1.2,0.1-1-0.6c-0.2-0.7-1.1-0.7-1.7-0.9
		C27,12,27,11.8,27.2,11.7c0.1-0.1,0.1-0.2-0.1-0.4c-0.7-0.2-1-1.1-1.4-1.7c-0.4-0.3-1-0.5-1.5-0.4c-1.2,0-1.3,1.6-2,2.3
		C22,12,21.4,12.3,21.4,13c0.3,0.9,1.5,1,2.4,1.2c0.4-0.1,0.9,0.1,1-0.2c0.1-0.2-0.1-0.2-0.2-0.2c-0.3-0.1-0.4-0.4-0.3-0.7
		c0.2-0.2,0.5-0.3,0.8-0.3c0.5,0.4,0.9-0.2,1.4-0.1c0.5,0.1,0.7,0.6,0.8,1c-0.6-0.1-1.2-0.4-1.8-0.2c-0.2,0.3,0,0.6,0.1,0.9
		c0.4-0.1,0.9-0.1,1.3-0.2c0.2,0,0.5,0.1,0.6,0.4c1.2,0.2,2.6,0.2,3.6,1c0,0.4,0.6,0.7,0.2,1c-1.2-1.2-2.9-1.4-4.5-1
		c-0.3-0.2,0.1-0.6-0.2-0.7c-1,0.2-1.9,0.6-2.9,1l-0.1-0.1c0.1-0.2,0-0.3,0.1-0.4c-0.2-0.1-0.4-0.3-0.7-0.3
		c-0.4,0.7,0.3,1.5,0.2,2.2c0.3,0.8,0.7-0.2,1.2-0.1c0.4,0,0.9-0.3,1.2,0.1c-0.5,0.2-1,0.3-1.4,0.7c-0.1,0.2,0.1,0.3,0.1,0.4
		c0.4,0.6,1.3,0.2,1.8,0.5c0,0.1-0.1,0.2-0.2,0.4c-0.7,0.1-1.1,0.7-1.5,1.2c-0.4-0.1-0.2-0.6-0.3-0.8c-0.1-0.3-0.4-0.3-0.6-0.3
		c-0.2,0.8-0.5,1.5-0.6,2.2c0.1,0.5,0.7,0.3,1,0.4c0.5,0.1,0.2,0.7,0.4,1c0.4,0.1,1,0.1,1.5,0c0.1,0.1,0.1,0.2,0.1,0.4
		c-0.2,0.3-0.5,0.4-0.8,0.4c-0.1,0.1-0.4,0.3-0.2,0.6c0.8,0.4-0.1,1.6,0.7,2c0.8,0.4,2,0.2,2.7-0.1c0.5-0.1,0.8-0.7,1.4-0.5
		c0.1,0.1,0.2,0.1,0.2,0.2c1.2,0.1,2.4-0.1,3.5-0.3c0.4,0.1,0.9-0.3,1.1,0.1c0,0.1,0.1,0.1,0,0.2c-1.5,0.6-3.4,0.6-5,0.8
		c-1,0.3-0.6,1.4-0.7,2.3c-0.6,0.3-0.4-0.6-0.8-0.9c-1.6,0.1-2.9,0.6-4.4,1c-0.9,0.5-1.4,1.5-1.6,2.5c0,0.6-0.2,1.3,0.3,1.5
		c1.2,0.4,3,0.6,4-0.2c0.9-0.3,1.7-1.1,2.6-0.7c0.5-0.8,1.3-1.7,2.2-2.1c0.4-0.1,0.4-0.5,0.8-0.6c0.4,0.1,0.2,0.6,0.3,0.7
		c0.9,0.1,1.7-0.2,2.5-0.1c0.5,0.2,0.6,0.7,0.7,1.1c0,0.2-0.1,0.4-0.1,0.6c0.3,0.6-0.4,0.9-0.1,1.6c-1,1.6-2.5,2.9-4.5,3.3
		c-0.4,0.2-0.1,0.8-0.4,1.1c-2.1,1.4-5.4,2.1-6.1,5c-0.4,1.5,0.9,2.1,1.8,2.8c1.2,0.2,1.8,1.8,3.3,1.5c0.6-1.5,0.7-3.3,1.3-4.8
		c1.8-3.1,3.9-6.1,6.6-8.3c0.9-0.7,1.8-1.6,3.1-1.6c0.2,0,0.1,0.2,0.1,0.2c-1.2,0.4-2.1,1.2-2.9,1.9c-0.7,0.7-1.6,1.5-2,2.5
		c-1.5,1.9-3.1,4.2-4.1,6.4c-0.1,0.7-0.2,1.5-0.1,2.3c0.2,0,0.3-0.3,0.5-0.4c1-2.2,2.1-4.3,3.3-6.3c0.7-1,1.3-2.3,2.5-2.8l0.1,0.1
		c-1.4,1.8-2.6,3.9-3.6,6c-0.7,1.7-1.7,3.3-1.8,5.2c0.2,0.5,0.9,0.3,1.2,0.7c0.3,0.2,0.4,0.6,0.3,0.9c-0.1,0.2-0.3,0.5-0.5,0.5
		c-0.5-0.1-0.4-0.7-0.7-1c-0.2,0-0.4-0.2-0.5,0c-0.1,0.7,0.7,1.4,0.1,2.1c-0.6,0.4-0.4-0.5-0.8-0.7c-0.2-0.1-0.6-0.1-0.7,0
		c-1.8,1.7-4.3,2.6-6.8,2.9c-0.8,0.4-2.5-0.2-2.5,1.1c0.1,1.2-0.1,2.7,0.9,3.4c2.5,0.2,5.1,0.2,7.4-0.4c1.8-0.4,3.5-1,5-1.8
		c2.5-1.9,3.7-5,5.3-7.6C42.3,43.4,44.1,38.8,43.1,33.9">
  </path>
  <path class="st0" d="M38.6,18.1c0,1.3-0.1,2.8-1.2,3.6c-0.7,0.3-1.5,0.1-2.1-0.4v-0.2c0.4,0.1,1.1,0.3,1.5-0.1c0-0.2,0-0.4-0.2-0.4
		c-0.6,0.2-1-0.1-1.6-0.2c-0.1-0.1-0.1-0.2-0.1-0.4c0.3-0.1,0.7-0.1,0.9-0.6c-0.2-0.8,0.9-0.8,0.9-1.5c0.2-0.3,0.7-0.6,1.2-0.4
		C38.2,17.6,38.5,17.8,38.6,18.1">
  </path>
  <path class="st0" d="M20.4,27.3c-0.2,0.1-0.2-0.2-0.4-0.4c0.1-0.2,0.6-0.1,0.8-0.1C21,27.1,20.6,27.1,20.4,27.3 M20.6,28.4
		c-0.1,0.2-0.3,0.3-0.6,0.2c-0.2-0.1-0.5-0.4-0.8-0.3v-0.2c0.5,0.3,0.7-0.3,1.2-0.2c0.1-0.1,0.3-0.2,0.4-0.1
		C20.9,28,20.6,28.2,20.6,28.4 M18.5,24.5l-0.4,0.1c-0.1-0.2,0.2-0.2,0.2-0.4c0.5,0,1.2-0.2,1.4,0.5c0.1,0.3,0.1,0.7-0.2,0.8H18
		C17.9,25,19,25.1,18.5,24.5 M17,23.9c-0.1,0.4-0.1,0.9-0.4,1c-0.2-0.1-0.6-0.4-0.7,0.1l-0.1,1.3c-0.1,0-0.3,0-0.4-0.2
		c-0.1-0.8,0.1-1.8,0.6-2.4c0.2,0.2,0.6,0.1,0.7-0.2c0.2-0.3,0.4-1,0.9-1c0.1,0.3,0.5,0.4,0.7,0.2l0.2,0.1c0,0.4-0.2,0.6-0.6,0.8
		C17.5,23.6,17.2,23.3,17,23.9 M19.9,22.5c0.4-0.5,0.3-1.2,0.7-1.7c0.2-0.1,0.4,0.1,0.4,0.2l-0.1,0.8c-0.8-0.1-0.4,1.5-1.4,1.1
		l-0.2-0.3C19.4,22.3,19.7,22.6,19.9,22.5 M13.8,24.5c-0.4-0.1-0.1-0.7-0.4-1c-0.6,0.4-0.2,1.3-0.8,1.8c-0.1,0-0.2-0.1-0.3-0.2
		c0.6-0.7,0.2-1.8,0.8-2.6c0.5-0.1,0.5,0.7,1,0.3C14.2,23.3,14.2,24.1,13.8,24.5 M21.6,25.2c-0.3-0.2-0.6,0.2-0.8,0
		c0.1-0.5,0.3-1,0.8-1.2c0.2-0.5,0.1-1.3-0.3-1.7c0.1-0.1,0.2-0.2,0.4-0.2c0.2-0.8,0.3-1.9-0.4-2.5c-0.4-0.1-0.7-0.4-1.1-0.3
		c0,0-0.1,0-0.1-0.1c-0.3-0.1-0.8-0.2-1.1,0c-0.6-0.5-1.4-0.4-2.1-0.6c-1.2-0.3-2.2,0.4-3.1,1c-2.2,1-1.3,3.7-2.6,5.3
		c-0.2,1-0.2,2.3,0.6,3.1c0.7-0.1,1.2,0.6,1.8,0.4c1-0.5-0.5-1.1-0.1-1.8c0.6-0.1,0.4,0.7,0.9,0.9c0.4,0.1,0.6-0.4,0.9-0.4
		c0.6,0.3,0.2,1,0.6,1.5c0.8,1.2,2.2,1.6,3.7,1.7c1-0.1,1.5-0.8,2-1.7C22,27.6,22.5,26.1,21.6,25.2">
  </path>
  <path class="st0" d="M16.9,30.8c0.5,0.4,1.8-0.1,1.7,0.9c0.7,0.5,1.5,0.9,2.2,1.4l2.3,1.8h0.3c0.2-0.2-0.5-0.6,0-0.7
		c1.7,0.3,3.1-0.9,4.6-1.4c0.4-0.1,0.7,0.2,0.9,0.5c0.5,1.2,0.7,2.5,0.7,3.7c-0.6,0.3-1,0.7-1.7,0.8c-0.7-0.4-1.3,0.2-1.8,0.4
		c-1.7,1-3.7,2.2-5.9,1.2c-1.8,1.2-3.3-1-5-1.2c-0.2,0.2-0.3,0.5-0.2,0.9c0.3,0.2,0.8,0.1,1.2,0.3c1,0.6,1.7,1.8,3.1,1.6
		c0,0.1,0.1,0.1,0.1,0.1v0.2c-0.6,0.4-1.5,1-1.7,1.7c0.1,0.2,0.4,0.2,0.6,0.1c1.1-0.6,2-1.6,3.3-1.7c0.6,0.6-0.6,1-0.2,1.7
		c0.7,0.6,1,1.5,0.7,2.4c-0.4,0.6-1.2,0.7-1.4,1.4c-0.1,0.2,0.1,0.6,0.4,0.7c1,0,1.2-2,2.6-1.3c1.1,0.5,2.5,0.3,3.3,1.3
		c0.4,0.6,0.7,1.4,1,2.1c-0.2,0.5-0.9,0.6-1.4,0.8c-2.1,0.9-4.6,1.1-6.8,1.9c-2,0.1-3.7-1.4-5.6-0.3c-1.2,0.2-2.4-0.3-3.3-0.9
		c-0.9-0.7-0.5-2.1-1.5-2.8c-1.6-4.1,0.2-8.2,0.9-12.1c0.9-1.7,0.5-4,2.3-5.2c0.8-0.4,1.4-1,1.8-1.7c0.9-0.1,1,1,1.8,1.1L16.9,30.8z
		">
  </path>
  <path class="st0" d="M34.4,30.8c-0.1,0.3,0.1,0.4,0.2,0.6c-0.1,0.6-0.1,1.2-0.3,1.7c-0.8,1-2,1.9-3.4,2c-0.8-0.1-1-1-1.4-1.6
		c0.1-1,0.6-2.2,1.7-2.6c0.3-0.2,0.6,0.1,0.9,0c0.8,0,1.4-0.5,2.2-0.3L34.4,30.8z">
  </path>
  <path class="st0" d="M19.6,54.2c0.6,0.6,0.6,1.7,0.3,2.5c-1.3,0.5-2.7,0.9-4.1,1c-0.6,0-1.3,0-1.7-0.4c-0.1-0.6-1-0.5-1-1.2
		c-0.1-0.3-0.6-0.2-0.7-0.6c0.2-0.5-0.3-0.7-0.4-1.1c0.1-1,1.4-0.9,2-1.2c0.8-1.1,2.3-0.4,3.3-0.2C18.2,53.3,19,53.7,19.6,54.2">
  </path>
  <path class="st0" d="M39.1,58c-0.5,0.4-0.9,0.9-1.5,1.2c-0.9-0.9-2-2-2.5-3.1c0-0.2,0-0.4,0.2-0.4C37.1,55.5,38.2,56.8,39.1,58">
  </path>
  <path class="st0" d="M32.1,58.7c0.4,1,0.6,2,0.9,2.9c-0.4,0.4-1.2,0.5-1.8,0.8C25.9,64,19.5,63,15.4,59.8c0.2-0.4,0.4-0.9,0.9-1
		c0.7-0.1,1.4,0.4,2.2,0.4c0,0,0.9,0.2,1.3,0c0.6,0,1-0.5,1.6-0.7c0.9-0.1,1.8-0.1,2.7-0.2c1.5,0.7,4.4,0.3,4.7,0.2
		c0.3-0.1,1.7-0.9,2.6-1.2C32.1,57.4,31.8,58.3,32.1,58.7">
  </path>
  <path class="st0" d="M35.4,57.8c0.7,0.7,1.3,1,1.6,1.8c-0.1,0.2-0.4,0.4-0.7,0.6c-0.5-0.2-0.7-1-1.3-0.9c-0.2,0.6,0.5,0.9,0.4,1.5
		c-0.4,0.2-1,0.5-1.5,0.6c-0.6-0.9-0.8-1.8-1-2.8c0.1-1.2,1.5-0.2,2.2-0.8H35.4z">
  </path>
  <path class="st0" d="M89.5,38.2c2.5,0,4.5-1.9,4.5-4.8c0-2.8-2.1-4.8-4.5-4.8c-2.5,0-4.6,1.9-4.6,4.8C85,36.3,87,38.2,89.5,38.2
		 M89.5,25.5c4.7,0,8.4,3.3,8.4,8s-3.7,8-8.4,8c-4.7,0-8.4-3.3-8.4-8S84.8,25.5,89.5,25.5">
  </path>
  <path class="st0" d="M101.1,36.6c0,0,1.7,1.7,4.2,1.7c1.1,0,2-0.5,2-1.4c0-2.3-7.4-2-7.4-6.9c0-2.8,2.5-4.5,5.8-4.5
		c3.4,0,5.1,1.7,5.1,1.7l-1.4,2.8c0,0-1.4-1.3-3.7-1.3c-1,0-1.9,0.4-1.9,1.4c0,2.2,7.4,1.9,7.4,6.8c0,2.5-2.2,4.6-5.8,4.6
		c-3.8,0-5.9-2.2-5.9-2.2L101.1,36.6z">
  </path>
  <path class="st0" d="M114.6,29.1h-2v-3h2.1v-4.4h3.7v4.4h3.5v3h-3.5V35c0,2.5,2,2.9,3,2.9c0.4,0,0.7-0.1,0.7-0.1v3.3
		c0,0-0.5,0.1-1.2,0.1c-2.1,0-6.4-0.6-6.4-5.8v-6.3H114.6z">
  </path>
  <path class="st0" d="M132.2,38.2c2.5,0,4.5-1.9,4.5-4.8c0-2.8-2.1-4.8-4.5-4.8c-2.5,0-4.6,1.9-4.6,4.8
		C127.6,36.3,129.7,38.2,132.2,38.2 M132.2,25.5c4.7,0,8.4,3.3,8.4,8s-3.7,8-8.4,8s-8.4-3.3-8.4-8C123.8,28.8,127.5,25.5,132.2,25.5
		">
  </path>
  <path class="st0" d="M143.3,25.8h3.7v1.8c0,0.6-0.1,1-0.1,1h0.1c0.7-1.3,2.3-3.2,5.4-3.2c3.4,0,5.3,1.8,5.3,5.8V41h-3.8v-9.1
		c0-1.9-0.5-3.1-2.4-3.1c-2,0-3.5,1.3-4.1,3.1c-0.2,0.6-0.3,1.3-0.3,2v7h-3.8L143.3,25.8L143.3,25.8z">
  </path>
  <path class="st0" d="M178.1,19.5c5.2,0,7.9,2.9,7.9,2.9l-1.9,2.9c0,0-2.4-2.2-5.8-2.2c-4.5,0-7.1,3.4-7.1,7.3c0,4,2.7,7.6,7.2,7.6
		c3.7,0,6.2-2.7,6.2-2.7l2,2.8c0,0-2.9,3.4-8.4,3.4c-6.5,0-11-4.8-11-11.1C167.2,24.2,171.9,19.5,178.1,19.5">
  </path>
  <path class="st0" d="M189.2,19.8h3.8v7.4c0,0.8-0.1,1.3-0.1,1.3h0.1c0.8-1.5,2.6-3,5.3-3c3.4,0,5.3,1.8,5.3,5.8v9.8h-3.8V32
		c0-1.9-0.5-3.1-2.4-3.1c-2,0-3.6,1.3-4.1,3.2c-0.2,0.6-0.2,1.3-0.2,2v7h-3.8V19.8H189.2z">
  </path>
  <path class="st0" d="M229.1,38.3c2,0,3.8-1.4,3.8-4.8c0-2.4-1.3-4.7-3.8-4.7c-2.1,0-3.8,1.7-3.8,4.7
		C225.3,36.4,226.8,38.3,229.1,38.3 M228.4,25.5c3.4,0,4.4,1.9,4.4,1.9h0.1c0,0,0-0.4,0-0.9v-6.7h3.8v21.3h-3.6v-1.3
		c0-0.6,0.1-1,0.1-1h-0.1c0,0-1.3,2.6-4.8,2.6c-4.1,0-6.8-3.3-6.8-8C221.4,28.6,224.3,25.5,228.4,25.5">
  </path>
  <path class="st0" d="M239.8,25.8h3.7v2.6c0,0.6-0.1,1.1-0.1,1.1h0.1c0.7-2.2,2.5-3.9,4.9-3.9c0.4,0,0.7,0.1,0.7,0.1v3.7
		c0,0-0.4-0.1-0.9-0.1c-1.6,0-3.4,0.9-4.2,3.2c-0.2,0.7-0.3,1.6-0.3,2.5v6.1h-3.8L239.8,25.8L239.8,25.8z">
  </path>
  <path class="st0" d="M260.9,31.6c-0.1-2.1-1.3-3.2-3-3.2c-1.9,0-3.3,1.2-3.7,3.2H260.9z M257.9,25.5c4.4,0,6.8,3.2,6.8,7.3
		c0,0.4-0.1,1.5-0.1,1.5h-10.5c0.2,2.7,2.3,4,4.6,4c2.5,0,4.4-1.7,4.4-1.7l1.4,2.7c0,0-2.3,2.2-6.1,2.2c-5.1,0-8.2-3.7-8.2-8
		C250.2,28.8,253.4,25.5,257.9,25.5">
  </path>
  <path class="st0" d="M267.5,25.8h3.7v1.8c0,0.6-0.1,1-0.1,1h0.1c0.7-1.3,2.3-3.2,5.4-3.2c3.4,0,5.3,1.8,5.3,5.8V41h-3.8v-9.1
		c0-1.9-0.5-3.1-2.4-3.1c-2,0-3.5,1.3-4.1,3.1c-0.2,0.6-0.3,1.3-0.3,2v7h-3.8V25.8z">
  </path>
  <polygon class="st0" points="306.3,19.8 310.2,19.8 310.2,28.9 319.9,28.9 319.9,19.8 323.8,19.8 323.8,41.1 319.9,41.1 
		319.9,32.2 310.2,32.2 310.2,41.1 306.3,41.1 	">
  </polygon>
  <path class="st0" d="M335,38.2c2.5,0,4.5-1.9,4.5-4.8c0-2.8-2.1-4.8-4.5-4.8c-2.5,0-4.6,2-4.6,4.8C330.4,36.3,332.5,38.2,335,38.2
		 M334.9,25.5c4.7,0,8.4,3.3,8.4,8s-3.7,8-8.4,8c-4.7,0-8.4-3.3-8.4-8S330.3,25.5,334.9,25.5">
  </path>
  <path class="st0" d="M346.6,36.6c0,0,1.7,1.7,4.2,1.7c1.1,0,2-0.5,2-1.4c0-2.3-7.4-2-7.4-6.9c0-2.8,2.5-4.5,5.8-4.5
		c3.4,0,5.1,1.7,5.1,1.7l-1.4,2.8c0,0-1.4-1.3-3.7-1.3c-1,0-1.9,0.4-1.9,1.4c0,2.2,7.4,1.9,7.4,6.8c0,2.5-2.2,4.6-5.8,4.6
		c-3.8,0-5.9-2.2-5.9-2.2L346.6,36.6z">
  </path>
  <path class="st0" d="M366.8,38.3c2.1,0,3.8-1.7,3.8-4.7c0-2.9-1.6-4.8-3.8-4.8c-2,0-3.8,1.4-3.8,4.8
		C363,35.9,364.3,38.3,366.8,38.3 M359.4,25.8h3.5v1.1c0,0.6-0.1,1.1-0.1,1.1h0.1c0,0,1.3-2.5,4.9-2.5c4.1,0,6.8,3.3,6.8,8
		c0,4.9-3,8-7,8c-3,0-4.4-2.1-4.4-2.1h-0.1c0,0,0.1,0.5,0.1,1.3v6.4h-3.8V25.8z">
  </path>
  <path class="st0" d="M385.7,29.1h-2v-3h2.1v-4.4h3.7v4.4h3.5v3h-3.5V35c0,2.5,2,2.9,3,2.9c0.4,0,0.7-0.1,0.7-0.1v3.3
		c0,0-0.4,0.1-1.2,0.1c-2.1,0-6.4-0.6-6.4-5.8v-6.3H385.7z">
  </path>
  <path class="st0" d="M400.9,38.5c2,0,3.4-2.2,3.4-4v-0.4h-0.7c-2,0-5.1,0.3-5.1,2.4C398.6,37.6,399.4,38.5,400.9,38.5 M403.8,31.5
		h0.5v-0.2c0-2-1.3-2.7-2.9-2.7c-2.2,0-4.2,1.5-4.2,1.5l-1.4-2.7c0,0,2.4-1.9,6-1.9c4,0,6.4,2.2,6.4,6.1v9.6h-3.5v-1.3
		c0-0.6,0.1-1.1,0.1-1.1h-0.1c0,0-1.2,2.7-4.6,2.7c-2.7,0-5.2-1.7-5.2-4.8C394.8,31.9,401.3,31.5,403.8,31.5">
  </path>
  <path class="st0" d="M286.8,36.6c0,0,1.7,1.7,4.2,1.7c1.1,0,2-0.5,2-1.4c0-2.3-7.4-2-7.4-6.9c0-2.9,2.6-4.5,5.9-4.5
		c3.5,0,5.1,1.7,5.1,1.7l-1.4,2.8c0,0-1.4-1.3-3.8-1.3c-1,0-2,0.4-2,1.4c0,2.2,7.4,1.9,7.4,6.8c0,2.5-2.2,4.6-5.9,4.6
		c-3.8,0-5.9-2.3-5.9-2.3L286.8,36.6z">
  </path>
  <rect x="214.9" y="19.8" class="st0" width="3.8" height="21.3">
  </rect>
  <rect x="411.5" y="19.8" class="st0" width="3.8" height="21.3">
  </rect>
  <path class="st0" d="M286.4,21.8c0-1.1-0.9-2-2-2s-2,0.9-2,2c0,1,0.8,1.9,1.8,1.9c-0.3,0.3-0.8,0.5-1.4,0.7l0.4,1.2
		C286.2,24.8,286.4,22.8,286.4,21.8C286.4,21.9,286.4,21.9,286.4,21.8">
  </path>
  <path class="st0" d="M72.3,37.8c2,0,3.1-1.3,3.1-3.1s-1.1-3.1-3.1-3.1h-4.1v6.1L72.3,37.8L72.3,37.8z M71.9,28.5
		c1.7,0,2.6-1.2,2.6-2.7s-0.9-2.6-2.7-2.6h-3.7v5.4L71.9,28.5L71.9,28.5z M64.3,19.8h7.6c3.8,0,6.6,2,6.6,5.5c0,2-1,3.7-2.6,4.6V30
		c2.3,0.7,3.4,2.8,3.4,5c0,4.3-3.4,6.2-7.3,6.2h-7.7V19.8z">
  </path>
  <rect x="207.3" y="25.8" class="st0" width="3.8" height="15.3">
  </rect>
  <path class="st0" d="M211.3,21.8c0,1.2-1,2.1-2.1,2.1c-1.2,0-2.1-1-2.1-2.1c0-1.2,1-2.1,2.1-2.1C210.4,19.7,211.3,20.6,211.3,21.8">
  </path>
  <rect x="377.4" y="25.8" class="st0" width="3.8" height="15.3">
  </rect>
  <path class="st0" d="M381.4,21.8c0,1.2-1,2.1-2.1,2.1c-1.2,0-2.1-1-2.1-2.1c0-1.2,1-2.1,2.1-2.1C380.5,19.7,381.4,20.6,381.4,21.8">
  </path>
  <path class="st0" d="M89.5,38.2c2.5,0,4.5-1.9,4.5-4.8c0-2.8-2.1-4.8-4.5-4.8c-2.5,0-4.6,1.9-4.6,4.8C85,36.3,87,38.2,89.5,38.2
		 M89.5,25.5c4.7,0,8.4,3.3,8.4,8s-3.7,8-8.4,8c-4.7,0-8.4-3.3-8.4-8S84.8,25.5,89.5,25.5">
  </path>
  <path class="st0" d="M101.1,36.6c0,0,1.7,1.7,4.2,1.7c1.1,0,2-0.5,2-1.4c0-2.3-7.4-2-7.4-6.9c0-2.8,2.5-4.5,5.8-4.5
		c3.4,0,5.1,1.7,5.1,1.7l-1.4,2.8c0,0-1.4-1.3-3.7-1.3c-1,0-1.9,0.4-1.9,1.4c0,2.2,7.4,1.9,7.4,6.8c0,2.5-2.2,4.6-5.8,4.6
		c-3.8,0-5.9-2.2-5.9-2.2L101.1,36.6z">
  </path>
  <path class="st0" d="M114.6,29.1h-2v-3h2.1v-4.4h3.7v4.4h3.5v3h-3.5V35c0,2.5,2,2.9,3,2.9c0.4,0,0.7-0.1,0.7-0.1v3.3
		c0,0-0.5,0.1-1.2,0.1c-2.1,0-6.4-0.6-6.4-5.8v-6.3H114.6z">
  </path>
  <path class="st0" d="M132.2,38.2c2.5,0,4.5-1.9,4.5-4.8c0-2.8-2.1-4.8-4.5-4.8c-2.5,0-4.6,1.9-4.6,4.8
		C127.6,36.3,129.7,38.2,132.2,38.2 M132.2,25.5c4.7,0,8.4,3.3,8.4,8s-3.7,8-8.4,8s-8.4-3.3-8.4-8C123.8,28.8,127.5,25.5,132.2,25.5
		">
  </path>
  <path class="st0" d="M143.3,25.8h3.7v1.8c0,0.6-0.1,1-0.1,1h0.1c0.7-1.3,2.3-3.2,5.4-3.2c3.4,0,5.3,1.8,5.3,5.8V41h-3.8v-9.1
		c0-1.9-0.5-3.1-2.4-3.1c-2,0-3.5,1.3-4.1,3.1c-0.2,0.6-0.3,1.3-0.3,2v7h-3.8L143.3,25.8L143.3,25.8z">
  </path>
  <path class="st0" d="M178.1,19.5c5.2,0,7.9,2.9,7.9,2.9l-1.9,2.9c0,0-2.4-2.2-5.8-2.2c-4.5,0-7.1,3.4-7.1,7.3c0,4,2.7,7.6,7.2,7.6
		c3.7,0,6.2-2.7,6.2-2.7l2,2.8c0,0-2.9,3.4-8.4,3.4c-6.5,0-11-4.8-11-11.1C167.2,24.2,171.9,19.5,178.1,19.5">
  </path>
  <path class="st0" d="M189.2,19.8h3.8v7.4c0,0.8-0.1,1.3-0.1,1.3h0.1c0.8-1.5,2.6-3,5.3-3c3.4,0,5.3,1.8,5.3,5.8v9.8h-3.8V32
		c0-1.9-0.5-3.1-2.4-3.1c-2,0-3.6,1.3-4.1,3.2c-0.2,0.6-0.2,1.3-0.2,2v7h-3.8V19.8H189.2z">
  </path>
  <path class="st0" d="M229.1,38.3c2,0,3.8-1.4,3.8-4.8c0-2.4-1.3-4.7-3.8-4.7c-2.1,0-3.8,1.7-3.8,4.7
		C225.3,36.4,226.8,38.3,229.1,38.3 M228.4,25.5c3.4,0,4.4,1.9,4.4,1.9h0.1c0,0,0-0.4,0-0.9v-6.7h3.8v21.3h-3.6v-1.3
		c0-0.6,0.1-1,0.1-1h-0.1c0,0-1.3,2.6-4.8,2.6c-4.1,0-6.8-3.3-6.8-8C221.4,28.6,224.3,25.5,228.4,25.5">
  </path>
  <path class="st0" d="M239.8,25.8h3.7v2.6c0,0.6-0.1,1.1-0.1,1.1h0.1c0.7-2.2,2.5-3.9,4.9-3.9c0.4,0,0.7,0.1,0.7,0.1v3.7
		c0,0-0.4-0.1-0.9-0.1c-1.6,0-3.4,0.9-4.2,3.2c-0.2,0.7-0.3,1.6-0.3,2.5v6.1h-3.8L239.8,25.8L239.8,25.8z">
  </path>
  <path class="st0" d="M260.9,31.6c-0.1-2.1-1.3-3.2-3-3.2c-1.9,0-3.3,1.2-3.7,3.2H260.9z M257.9,25.5c4.4,0,6.8,3.2,6.8,7.3
		c0,0.4-0.1,1.5-0.1,1.5h-10.5c0.2,2.7,2.3,4,4.6,4c2.5,0,4.4-1.7,4.4-1.7l1.4,2.7c0,0-2.3,2.2-6.1,2.2c-5.1,0-8.2-3.7-8.2-8
		C250.2,28.8,253.4,25.5,257.9,25.5">
  </path>
  <path class="st0" d="M267.5,25.8h3.7v1.8c0,0.6-0.1,1-0.1,1h0.1c0.7-1.3,2.3-3.2,5.4-3.2c3.4,0,5.3,1.8,5.3,5.8V41h-3.8v-9.1
		c0-1.9-0.5-3.1-2.4-3.1c-2,0-3.5,1.3-4.1,3.1c-0.2,0.6-0.3,1.3-0.3,2v7h-3.8V25.8z">
  </path>
  <polygon class="st0" points="306.3,19.8 310.2,19.8 310.2,28.9 319.9,28.9 319.9,19.8 323.8,19.8 323.8,41.1 319.9,41.1 
		319.9,32.2 310.2,32.2 310.2,41.1 306.3,41.1 	">
  </polygon>
  <path class="st0" d="M335,38.2c2.5,0,4.5-1.9,4.5-4.8c0-2.8-2.1-4.8-4.5-4.8c-2.5,0-4.6,2-4.6,4.8C330.4,36.3,332.5,38.2,335,38.2
		 M334.9,25.5c4.7,0,8.4,3.3,8.4,8s-3.7,8-8.4,8c-4.7,0-8.4-3.3-8.4-8S330.3,25.5,334.9,25.5">
  </path>
  <path class="st0" d="M346.6,36.6c0,0,1.7,1.7,4.2,1.7c1.1,0,2-0.5,2-1.4c0-2.3-7.4-2-7.4-6.9c0-2.8,2.5-4.5,5.8-4.5
		c3.4,0,5.1,1.7,5.1,1.7l-1.4,2.8c0,0-1.4-1.3-3.7-1.3c-1,0-1.9,0.4-1.9,1.4c0,2.2,7.4,1.9,7.4,6.8c0,2.5-2.2,4.6-5.8,4.6
		c-3.8,0-5.9-2.2-5.9-2.2L346.6,36.6z">
  </path>
  <path class="st0" d="M366.8,38.3c2.1,0,3.8-1.7,3.8-4.7c0-2.9-1.6-4.8-3.8-4.8c-2,0-3.8,1.4-3.8,4.8
		C363,35.9,364.3,38.3,366.8,38.3 M359.4,25.8h3.5v1.1c0,0.6-0.1,1.1-0.1,1.1h0.1c0,0,1.3-2.5,4.9-2.5c4.1,0,6.8,3.3,6.8,8
		c0,4.9-3,8-7,8c-3,0-4.4-2.1-4.4-2.1h-0.1c0,0,0.1,0.5,0.1,1.3v6.4h-3.8V25.8z">
  </path>
  <path class="st0" d="M385.7,29.1h-2v-3h2.1v-4.4h3.7v4.4h3.5v3h-3.5V35c0,2.5,2,2.9,3,2.9c0.4,0,0.7-0.1,0.7-0.1v3.3
		c0,0-0.4,0.1-1.2,0.1c-2.1,0-6.4-0.6-6.4-5.8v-6.3H385.7z">
  </path>
  <path class="st0" d="M400.9,38.5c2,0,3.4-2.2,3.4-4v-0.4h-0.7c-2,0-5.1,0.3-5.1,2.4C398.6,37.6,399.4,38.5,400.9,38.5 M403.8,31.5
		h0.5v-0.2c0-2-1.3-2.7-2.9-2.7c-2.2,0-4.2,1.5-4.2,1.5l-1.4-2.7c0,0,2.4-1.9,6-1.9c4,0,6.4,2.2,6.4,6.1v9.6h-3.5v-1.3
		c0-0.6,0.1-1.1,0.1-1.1h-0.1c0,0-1.2,2.7-4.6,2.7c-2.7,0-5.2-1.7-5.2-4.8C394.8,31.9,401.3,31.5,403.8,31.5">
  </path>
  <path class="st0" d="M286.8,36.6c0,0,1.7,1.7,4.2,1.7c1.1,0,2-0.5,2-1.4c0-2.3-7.4-2-7.4-6.9c0-2.9,2.6-4.5,5.9-4.5
		c3.5,0,5.1,1.7,5.1,1.7l-1.4,2.8c0,0-1.4-1.3-3.8-1.3c-1,0-2,0.4-2,1.4c0,2.2,7.4,1.9,7.4,6.8c0,2.5-2.2,4.6-5.9,4.6
		c-3.8,0-5.9-2.3-5.9-2.3L286.8,36.6z">
  </path>
  <rect x="214.9" y="19.8" class="st0" width="3.8" height="21.3">
  </rect>
  <rect x="411.5" y="19.8" class="st0" width="3.8" height="21.3">
  </rect>
  <path class="st0" d="M286.4,21.8c0-1.1-0.9-2-2-2s-2,0.9-2,2c0,1,0.8,1.9,1.8,1.9c-0.3,0.3-0.8,0.5-1.4,0.7l0.4,1.2
		C286.2,24.8,286.4,22.8,286.4,21.8C286.4,21.9,286.4,21.9,286.4,21.8">
  </path>
  <path class="st0" d="M72.3,37.8c2,0,3.1-1.3,3.1-3.1s-1.1-3.1-3.1-3.1h-4.1v6.1L72.3,37.8L72.3,37.8z M71.9,28.5
		c1.7,0,2.6-1.2,2.6-2.7s-0.9-2.6-2.7-2.6h-3.7v5.4L71.9,28.5L71.9,28.5z M64.3,19.8h7.6c3.8,0,6.6,2,6.6,5.5c0,2-1,3.7-2.6,4.6V30
		c2.3,0.7,3.4,2.8,3.4,5c0,4.3-3.4,6.2-7.3,6.2h-7.7V19.8z">
  </path>
  <rect x="207.3" y="25.8" class="st0" width="3.8" height="15.3">
  </rect>
  <path class="st0" d="M211.3,21.8c0,1.2-1,2.1-2.1,2.1c-1.2,0-2.1-1-2.1-2.1c0-1.2,1-2.1,2.1-2.1C210.4,19.7,211.3,20.6,211.3,21.8">
  </path>
  <rect x="377.4" y="25.8" class="st0" width="3.8" height="15.3">
  </rect>
  <path class="st0" d="M381.4,21.8c0,1.2-1,2.1-2.1,2.1c-1.2,0-2.1-1-2.1-2.1c0-1.2,1-2.1,2.1-2.1C380.5,19.7,381.4,20.6,381.4,21.8">
  </path>
 </g>
</svg>